<svg xmlns="http://www.w3.org/2000/svg" viewBox="0 11.630000114440918 176.64999389648438 49" data-asc="0.99" width="176.64999389648438" height="49"><defs/><g fill="#000000"><g transform="translate(0, 0)"><path d="M24.40 14.85L24.40 37.02Q24.40 40.05 23.48 42.50Q22.55 44.95 20.76 46.67Q18.98 48.40 16.39 49.33Q13.80 50.25 10.48 50.25Q7.13 50.25 4.69 49.39Q2.25 48.52 0 47L3.13 41.95Q4.90 43.17 6.45 43.66Q8 44.15 9.98 44.15Q12.65 44.15 14.44 42.44Q16.23 40.73 16.23 37.13L16.23 20.85L5.58 20.85L5.58 14.85L24.40 14.85ZM43.05 22.07Q47.15 22.07 50.03 23.82Q52.90 25.57 54.42 28.74Q55.95 31.90 55.95 36.15Q55.95 40.58 54.41 43.76Q52.88 46.95 50 48.65Q47.13 50.35 43.05 50.35Q39 50.35 36.11 48.67Q33.23 47 31.69 43.83Q30.15 40.65 30.15 36.20Q30.15 31.97 31.69 28.80Q33.23 25.63 36.11 23.85Q39 22.07 43.05 22.07M43.05 27.90Q40.63 27.90 39.46 29.89Q38.30 31.88 38.30 36.20Q38.30 40.60 39.46 42.58Q40.63 44.55 43.05 44.55Q45.48 44.55 46.64 42.58Q47.80 40.60 47.80 36.15Q47.80 31.85 46.64 29.88Q45.48 27.90 43.05 27.90ZM69.45 11.63L69.45 25.57Q71.13 23.80 73.09 22.94Q75.05 22.07 77.25 22.07Q80.80 22.07 82.67 24.15Q84.55 26.22 84.55 30L84.55 49.50L76.65 49.50L76.65 32.20Q76.65 29.80 76.11 28.85Q75.58 27.90 74.10 27.90Q73.28 27.90 72.49 28.29Q71.70 28.67 70.95 29.40Q70.20 30.13 69.45 31.13L69.45 49.50L61.55 49.50L61.55 12.40L69.45 11.63ZM91.55 49.50L91.55 22.95L98.45 22.95L99 26.02Q100.78 24.02 102.75 23.05Q104.72 22.07 107.25 22.07Q110.65 22.07 112.60 24.15Q114.55 26.22 114.55 30L114.55 49.50L106.65 49.50L106.65 32.27Q106.65 30.65 106.42 29.69Q106.20 28.72 105.64 28.31Q105.08 27.90 104.10 27.90Q103.28 27.90 102.49 28.26Q101.70 28.63 100.95 29.30Q100.20 29.97 99.45 30.93L99.45 49.50L91.55 49.50ZM121.55 49.50L121.55 22.95L128.45 22.95L129 26.02Q130.78 24.02 132.75 23.05Q134.72 22.07 137.25 22.07Q140.65 22.07 142.60 24.15Q144.55 26.22 144.55 30L144.55 49.50L136.65 49.50L136.65 32.27Q136.65 30.65 136.43 29.69Q136.20 28.72 135.64 28.31Q135.07 27.90 134.10 27.90Q133.28 27.90 132.49 28.26Q131.70 28.63 130.95 29.30Q130.20 29.97 129.45 30.93L129.45 49.50L121.55 49.50ZM176.65 22.95L167.80 49.50Q166.63 53.02 164.69 55.41Q162.75 57.80 159.86 59.10Q156.98 60.40 152.93 60.63L152.03 55.05Q154.65 54.73 156.26 54.08Q157.88 53.42 158.86 52.31Q159.85 51.20 160.58 49.50L157.88 49.50L149.45 22.95L157.80 22.95L162.95 44.45L168.55 22.95L176.65 22.95Z"/></g></g></svg>