<svg xmlns="http://www.w3.org/2000/svg" viewBox="0 8.699999809265137 333 49.29999923706055" data-asc="0.935" width="333" height="49.29999923706055"><defs/><g fill="#000000"><g transform="translate(0, 0)"><path d="M13.50 41.35Q13.50 45.65 11.95 48.45Q10.40 51.25 8.03 52.85Q5.65 54.45 2.40 55.60L0 49.25Q1.95 48.40 2.90 47.33Q3.85 46.25 4.15 44.83Q4.45 43.40 4.45 41.05L4.45 12L13.50 12L13.50 41.35ZM29 19.20Q34.75 19.20 38.03 22.82Q41.30 26.45 41.30 33.45Q41.30 40.15 38.03 43.90Q34.75 47.65 29 47.65Q23.20 47.65 19.95 44.02Q16.70 40.40 16.70 33.40Q16.70 26.70 19.98 22.95Q23.25 19.20 29 19.20M29 25.55Q27.25 25.55 26.45 27.35Q25.65 29.15 25.65 33.40Q25.65 37.80 26.43 39.58Q27.20 41.35 29 41.35Q30.75 41.35 31.55 39.55Q32.35 37.75 32.35 33.45Q32.35 29.10 31.55 27.32Q30.75 25.55 29 25.55ZM59.95 19.20Q63.05 19.20 64.80 21.25Q66.55 23.30 66.55 26.95L66.55 46.75L57.85 46.75L57.85 28.10Q57.85 26.80 57.48 26.25Q57.10 25.70 56.40 25.70Q54.95 25.70 53.25 28.50L53.25 46.75L44.55 46.75L44.55 9.60L53.25 8.70L53.25 22.75Q54.70 20.90 56.30 20.05Q57.90 19.20 59.95 19.20ZM86.05 19.20Q89.15 19.20 90.90 21.25Q92.65 23.30 92.65 26.95L92.65 46.75L83.95 46.75L83.95 28.10Q83.95 26.80 83.58 26.25Q83.20 25.70 82.50 25.70Q81.05 25.70 79.35 28.50L79.35 46.75L70.65 46.75L70.65 20.10L78.25 20.10L78.85 23.05Q80.40 21.10 82.13 20.15Q83.85 19.20 86.05 19.20ZM112.15 19.20Q115.25 19.20 117 21.25Q118.75 23.30 118.75 26.95L118.75 46.75L110.05 46.75L110.05 28.10Q110.05 26.80 109.67 26.25Q109.30 25.70 108.60 25.70Q107.15 25.70 105.45 28.50L105.45 46.75L96.75 46.75L96.75 20.10L104.35 20.10L104.95 23.05Q106.50 21.10 108.22 20.15Q109.95 19.20 112.15 19.20ZM137.95 46.75Q135 57.40 123.20 58L122.30 52.05Q125.75 51.60 127.47 50.42Q129.20 49.25 130.20 46.75L127.05 46.75L120.20 20.10L129.15 20.10L132.55 41.30L136.65 20.10L145.40 20.10L137.95 46.75ZM190.00 46.75L181.25 46.75L181.00 33.65Q180.90 29.35 180.90 27.20Q180.90 23.05 181.10 19.70L177.20 43.15L168.70 43.15L164.55 19.70Q164.90 25.30 164.90 30.25Q164.90 32.50 164.85 33.70L164.55 46.75L155.95 46.75L158.20 12L169.35 12L173.10 35.15L176.45 12L187.70 12L190.00 46.75ZM213.70 38.95Q213.70 40.30 214 40.90Q214.30 41.50 215.15 41.85L213.40 47.50Q210.95 47.30 209.42 46.48Q207.90 45.65 207.00 43.80Q204.50 47.65 199.75 47.65Q196.15 47.65 194.00 45.35Q191.85 43.05 191.85 39.30Q191.85 34.90 194.82 32.58Q197.80 30.25 203.45 30.25L205.20 30.25L205.20 29.25Q205.20 27 204.45 26.20Q203.70 25.40 201.65 25.40Q199.25 25.40 195.45 26.75L193.55 21.25Q195.75 20.25 198.32 19.72Q200.90 19.20 203.20 19.20Q208.60 19.20 211.15 21.52Q213.70 23.85 213.70 28.75L213.70 38.95M202.45 41.55Q203.30 41.55 204.02 41Q204.75 40.45 205.20 39.55L205.20 34.90L204.20 34.90Q202.20 34.90 201.27 35.77Q200.35 36.65 200.35 38.50Q200.35 39.95 200.90 40.75Q201.45 41.55 202.45 41.55ZM234.60 45.50Q233.20 46.55 231.32 47.10Q229.45 47.65 227.55 47.65Q223.15 47.65 221 45.23Q218.85 42.80 218.85 38.35L218.85 26.10L215.95 26.10L215.95 20.10L218.85 20.10L218.85 14.45L227.55 13.40L227.55 20.10L232.95 20.10L232.10 26.10L227.55 26.10L227.55 38.25Q227.55 40.80 229.50 40.80Q230.55 40.80 231.80 40.15L234.60 45.50ZM251.50 19.20Q254.60 19.20 256.35 21.25Q258.10 23.30 258.10 26.95L258.10 46.75L249.40 46.75L249.40 28.10Q249.40 26.80 249.02 26.25Q248.65 25.70 247.95 25.70Q246.50 25.70 244.80 28.50L244.80 46.75L236.10 46.75L236.10 9.60L244.80 8.70L244.80 22.75Q246.25 20.90 247.85 20.05Q249.45 19.20 251.50 19.20ZM284.75 33Q284.75 34.25 284.55 35.95L269.85 35.95Q270.15 39.10 271.30 40.25Q272.45 41.40 274.65 41.40Q276.05 41.40 277.38 40.88Q278.70 40.35 280.30 39.20L283.80 43.90Q279.60 47.65 273.90 47.65Q267.65 47.65 264.40 43.85Q261.15 40.05 261.15 33.55Q261.15 29.40 262.50 26.15Q263.85 22.90 266.53 21.05Q269.20 19.20 273.05 19.20Q278.45 19.20 281.60 22.77Q284.75 26.35 284.75 33M276.20 30.55Q276.20 27.65 275.53 26.22Q274.85 24.80 273.15 24.80Q271.60 24.80 270.80 26.13Q270 27.45 269.80 30.90L276.20 30.90L276.20 30.55ZM309.30 46.75L301.70 46.75L301.35 43.80Q298.80 47.65 294.30 47.65Q291.05 47.65 289.30 45.48Q287.55 43.30 287.55 39.60L287.55 20.10L296.25 20.10L296.25 38.90Q296.25 40.20 296.63 40.75Q297 41.30 297.80 41.30Q299.40 41.30 300.60 38.85L300.60 20.10L309.30 20.10L309.30 46.75ZM322.85 19.20Q325.55 19.20 327.98 20.10Q330.40 21 332.10 22.55L329.00 27.25Q326.15 25.30 323.45 25.30Q322.30 25.30 321.68 25.77Q321.05 26.25 321.05 27.05Q321.05 27.70 321.40 28.15Q321.75 28.60 322.78 29.13Q323.80 29.65 325.95 30.40Q329.55 31.70 331.28 33.60Q333.00 35.50 333.00 38.75Q333.00 41.45 331.58 43.48Q330.15 45.50 327.58 46.58Q325.00 47.65 321.75 47.65Q318.60 47.65 315.88 46.58Q313.15 45.50 311.25 43.60L315.30 39.05Q318.45 41.60 321.35 41.60Q322.70 41.60 323.43 41.05Q324.15 40.50 324.15 39.50Q324.15 38.65 323.80 38.13Q323.45 37.60 322.48 37.10Q321.50 36.60 319.45 35.90Q315.80 34.60 314.13 32.63Q312.45 30.65 312.45 27.65Q312.45 25.25 313.68 23.32Q314.90 21.40 317.25 20.30Q319.60 19.20 322.85 19.20Z"/></g></g></svg>